General
Complete name                            : The League Of Extraordinary Gentlemen 2003  720p BRRip  Dual Audio [Hindi-English] {deven101}.mkv
Format                                   : Matroska
Format version                           : Version 2
File size                                : 899 MiB
Duration                                 : 1h 50mn
Overall bit rate mode                    : Variable
Overall bit rate                         : 1 142 Kbps
Movie name                               : The League Of Extraordinary Gentlemen 2003  720p BRRip  Dual Audio [Hindi-English] {deven101}
Encoded date                             : UTC 2013-02-26 16:32:34
Writing application                      : mkvmerge v5.7.0 ('The Whirlwind') built on Jul  8 2012 20:08:51
Writing library                          : libebml v1.2.3 + libmatroska v1.3.0

Video
ID                                       : 1
Format                                   : AVC
Format/Info                              : Advanced Video Codec
Format profile                           : High@L4.1
Format settings, CABAC                   : Yes
Format settings, ReFrames                : 3 frames
Muxing mode                              : Header stripping
Codec ID                                 : V_MPEG4/ISO/AVC
Duration                                 : 1h 50mn
Bit rate mode                            : Variable
Bit rate                                 : 821 Kbps
Maximum bit rate                         : 40.0 Mbps
Width                                    : 1 280 pixels
Height                                   : 544 pixels
Display aspect ratio                     : 2.35:1
Original display aspect ratio            : 2.35:1
Frame rate mode                          : Constant
Frame rate                               : 23.976 fps
Color space                              : YUV
Chroma subsampling                       : 4:2:0
Bit depth                                : 8 bits
Scan type                                : Progressive
Bits/(Pixel*Frame)                       : 0.049
Stream size                              : 629 MiB (70%)
Title                                    : The League Of Extraordinary Gentlemen 2003  720p BRRip  Dual Audio [Hindi-English] {deven101}
Writing library                          : x264 core 115 r1995 c1e60b9
Encoding settings                        : cabac=1 / ref=4 / deblock=1:0:0 / analyse=0x3:0x113 / me=hex / subme=7 / psy=1 / psy_rd=1.00:0.00 / mixed_ref=1 / me_range=16 / chroma_me=1 / trellis=1 / 8x8dct=1 / cqm=0 / deadzone=21,11 / fast_pskip=1 / chroma_qp_offset=-2 / threads=3 / sliced_threads=0 / slices=4 / nr=0 / decimate=1 / interlaced=0 / bluray_compat=1 / constrained_intra=0 / bframes=3 / b_pyramid=1 / b_adapt=1 / b_bias=0 / direct=1 / weightb=1 / open_gop=1 / weightp=0 / keyint=60 / keyint_min=6 / scenecut=40 / intra_refresh=0 / rc_lookahead=40 / rc=2pass / mbtree=1 / bitrate=821 / ratetol=1.0 / qcomp=0.60 / qpmin=0 / qpmax=69 / qpstep=4 / cplxblur=20.0 / qblur=0.5 / vbv_maxrate=40000 / vbv_bufsize=30000 / nal_hrd=vbr / ip_ratio=1.40 / aq=1:1.00
Language                                 : English
Default                                  : Yes
Forced                                   : No
Color primaries                          : BT.709
Transfer characteristics                 : BT.709
Matrix coefficients                      : BT.709

Audio #1
ID                                       : 2
Format                                   : AC-3
Format/Info                              : Audio Coding 3
Mode extension                           : CM (complete main)
Format settings, Endianness              : Big
Muxing mode                              : Header stripping
Codec ID                                 : A_AC3
Duration                                 : 1h 50mn
Bit rate mode                            : Constant
Bit rate                                 : 64.0 Kbps
Channel(s)                               : 2 channels
Channel positions                        : Front: L R
Sampling rate                            : 44.1 KHz
Bit depth                                : 16 bits
Compression mode                         : Lossy
Stream size                              : 50.4 MiB (6%)
Title                                    : dev
Language                                 : English
Default                                  : No
Forced                                   : No

Audio #2
ID                                       : 4
Format                                   : AC-3
Format/Info                              : Audio Coding 3
Mode extension                           : CM (complete main)
Format settings, Endianness              : Big
Muxing mode                              : Header stripping
Codec ID                                 : A_AC3
Duration                                 : 1h 50mn
Bit rate mode                            : Constant
Bit rate                                 : 256 Kbps
Channel(s)                               : 2 channels
Channel positions                        : Front: L R
Sampling rate                            : 44.1 KHz
Bit depth                                : 16 bits
Compression mode                         : Lossy
Delay relative to video                  : 1s 753ms
Stream size                              : 202 MiB (22%)
Title                                    : dev
Language                                 : Hindi
Default                                  : Yes
Forced                                   : No
